<mxfile host="app.diagrams.net" modified="2024-06-10T06:10:01.342Z" agent="Mozilla/5.0 (Windows NT 10.0; Win64; x64) AppleWebKit/537.36 (KHTML, like Gecko) Chrome/125.0.0.0 Safari/537.36" etag="RVOHwNd8EAV5sOmp-pzI" version="24.5.2" type="onedrive">
  <diagram name="Halaman-1" id="-0ZdOMkxd6inGHNltLP_">
    <mxGraphModel grid="1" page="1" gridSize="10" guides="1" tooltips="1" connect="1" arrows="1" fold="1" pageScale="1" pageWidth="827" pageHeight="1169" math="0" shadow="0">
      <root>
        <mxCell id="0" />
        <mxCell id="1" parent="0" />
        <mxCell id="gyecGgyeB3Gkbi3XPC7L-1" style="edgeStyle=orthogonalEdgeStyle;rounded=0;orthogonalLoop=1;jettySize=auto;html=1;exitX=1;exitY=0;exitDx=0;exitDy=0;entryX=0;entryY=0;entryDx=0;entryDy=0;" edge="1" parent="1" source="gyecGgyeB3Gkbi3XPC7L-3" target="gyecGgyeB3Gkbi3XPC7L-5">
          <mxGeometry relative="1" as="geometry">
            <Array as="points">
              <mxPoint x="160" y="200" />
              <mxPoint x="252" y="200" />
            </Array>
          </mxGeometry>
        </mxCell>
        <mxCell id="gyecGgyeB3Gkbi3XPC7L-3" value="pengguna" style="rounded=0;whiteSpace=wrap;html=1;" vertex="1" parent="1">
          <mxGeometry x="40" y="220" width="120" height="60" as="geometry" />
        </mxCell>
        <mxCell id="gyecGgyeB3Gkbi3XPC7L-4" style="edgeStyle=orthogonalEdgeStyle;rounded=0;orthogonalLoop=1;jettySize=auto;html=1;exitX=0;exitY=1;exitDx=0;exitDy=0;entryX=1;entryY=1;entryDx=0;entryDy=0;" edge="1" parent="1" source="gyecGgyeB3Gkbi3XPC7L-5" target="gyecGgyeB3Gkbi3XPC7L-3">
          <mxGeometry relative="1" as="geometry">
            <Array as="points">
              <mxPoint x="252" y="310" />
              <mxPoint x="160" y="310" />
            </Array>
          </mxGeometry>
        </mxCell>
        <mxCell id="gyecGgyeB3Gkbi3XPC7L-5" value="program" style="ellipse;whiteSpace=wrap;html=1;aspect=fixed;" vertex="1" parent="1">
          <mxGeometry x="240" y="210" width="80" height="80" as="geometry" />
        </mxCell>
        <mxCell id="gyecGgyeB3Gkbi3XPC7L-6" value="Data Pasien" style="text;html=1;align=center;verticalAlign=middle;whiteSpace=wrap;rounded=0;" vertex="1" parent="1">
          <mxGeometry x="175" y="170" width="70" height="30" as="geometry" />
        </mxCell>
        <mxCell id="gyecGgyeB3Gkbi3XPC7L-7" style="edgeStyle=orthogonalEdgeStyle;rounded=0;orthogonalLoop=1;jettySize=auto;html=1;exitX=1;exitY=0;exitDx=0;exitDy=0;entryX=0.385;entryY=0.022;entryDx=0;entryDy=0;entryPerimeter=0;" edge="1" parent="1" source="gyecGgyeB3Gkbi3XPC7L-3" target="gyecGgyeB3Gkbi3XPC7L-5">
          <mxGeometry relative="1" as="geometry">
            <Array as="points">
              <mxPoint x="160" y="160" />
              <mxPoint x="270" y="160" />
              <mxPoint x="270" y="200" />
              <mxPoint x="271" y="200" />
            </Array>
          </mxGeometry>
        </mxCell>
        <mxCell id="gyecGgyeB3Gkbi3XPC7L-8" value="nama pasien yang ingin dicari" style="text;html=1;align=center;verticalAlign=middle;whiteSpace=wrap;rounded=0;" vertex="1" parent="1">
          <mxGeometry x="160" y="130" width="110" height="30" as="geometry" />
        </mxCell>
        <mxCell id="gyecGgyeB3Gkbi3XPC7L-11" value="pemberitahuan data pasien ditemukan" style="text;html=1;align=center;verticalAlign=middle;whiteSpace=wrap;rounded=0;" vertex="1" parent="1">
          <mxGeometry x="160" y="320" width="90" height="30" as="geometry" />
        </mxCell>
        <mxCell id="gyecGgyeB3Gkbi3XPC7L-12" style="edgeStyle=orthogonalEdgeStyle;rounded=0;orthogonalLoop=1;jettySize=auto;html=1;exitX=1;exitY=1;exitDx=0;exitDy=0;entryX=0.814;entryY=1.017;entryDx=0;entryDy=0;entryPerimeter=0;" edge="1" parent="1" source="gyecGgyeB3Gkbi3XPC7L-5" target="gyecGgyeB3Gkbi3XPC7L-3">
          <mxGeometry relative="1" as="geometry">
            <Array as="points">
              <mxPoint x="308" y="370" />
              <mxPoint x="138" y="370" />
            </Array>
          </mxGeometry>
        </mxCell>
        <mxCell id="gyecGgyeB3Gkbi3XPC7L-13" value="rincian data pasien yang ditemukan" style="text;html=1;align=center;verticalAlign=middle;whiteSpace=wrap;rounded=0;" vertex="1" parent="1">
          <mxGeometry x="140" y="370" width="160" height="30" as="geometry" />
        </mxCell>
        <mxCell id="gyecGgyeB3Gkbi3XPC7L-16" style="edgeStyle=orthogonalEdgeStyle;rounded=0;orthogonalLoop=1;jettySize=auto;html=1;entryX=0.645;entryY=1.06;entryDx=0;entryDy=0;entryPerimeter=0;" edge="1" parent="1" source="gyecGgyeB3Gkbi3XPC7L-5" target="gyecGgyeB3Gkbi3XPC7L-3">
          <mxGeometry relative="1" as="geometry">
            <Array as="points">
              <mxPoint x="280" y="420" />
              <mxPoint x="117" y="420" />
            </Array>
          </mxGeometry>
        </mxCell>
        <mxCell id="gyecGgyeB3Gkbi3XPC7L-17" value="pemberitahuan data pasien tidak ditemukan" style="text;html=1;align=center;verticalAlign=middle;whiteSpace=wrap;rounded=0;" vertex="1" parent="1">
          <mxGeometry x="120" y="420" width="160" height="30" as="geometry" />
        </mxCell>
      </root>
    </mxGraphModel>
  </diagram>
</mxfile>
